PathFileType	4	(X/Y/Z)	 2.5Hzhigh3min.trc
DataRate	CameraRate	NumFrames	NumMarkers	Units	OrigDataRate	OrigDataStartFrame	OrigNumFrames
200	200	9	35	m	200	626	1000
Frame#	Time	C7			LSH			RSH			MAN			RASI			LASI			HIPR			HIPL			RPSI			LPSI			COX			RTHI1			RTHI2			RTHI3			RTHI4			RSHA1			RSHA2			RSHA3			RSHA4			RHEEL			RMET5			RMET1			RTOE			LTHI1			LTHI2			LTHI3			LTHI4			LSHA1			LSHA2			LSHA3			LSHA4			LHEEL			LMET5			LMET1			LTOE			
		X1	Y1	Z1	X2	Y2	Z2	X3	Y3	Z3	X4	Y4	Z4	X5	Y5	Z5	X6	Y6	Z6	X7	Y7	Z7	X8	Y8	Z8	X9	Y9	Z9	X10	Y10	Z10	X11	Y11	Z11	X12	Y12	Z12	X13	Y13	Z13	X14	Y14	Z14	X15	Y15	Z15	X16	Y16	Z16	X17	Y17	Z17	X18	Y18	Z18	X19	Y19	Z19	X20	Y20	Z20	X21	Y21	Z21	X22	Y22	Z22	X23	Y23	Z23	X24	Y24	Z24	X25	Y25	Z25	X26	Y26	Z26	X27	Y27	Z27	X28	Y28	Z28	X29	Y29	Z29	X30	Y30	Z30	X31	Y31	Z31	X32	Y32	Z32	X33	Y33	Z33	X34	Y34	Z34	X35	Y35	Z35	
626	3.1300	-0.292944	1.358389	-0.543713	-0.253629	1.320061	-0.717187	-0.258130	1.347345	-0.366733	-0.173966	1.317838	-0.540120	-0.140628	0.931461	-0.434052	-0.141445	0.937548	-0.617414	-0.210420	0.971936	-0.389906	-0.210663	0.978169	-0.656833	-0.289850	0.958607	-0.461958	-0.291161	0.961610	-0.574014	-0.294330	0.972885	-0.520816	-0.231783	0.762519	-0.354487	-0.211635	0.706622	-0.346931	-0.149749	0.723480	-0.355671	-0.161746	0.783242	-0.363168	-0.237411	0.333902	-0.315515	-0.260119	0.296785	-0.313778	-0.209012	0.271540	-0.335504	-0.191591	0.308061	-0.339391	-0.375747	0.105329	-0.358819	-0.235311	0.032287	-0.294102	-0.202828	0.031888	-0.369287	-0.177403	0.024434	-0.359706	-0.218044	0.728759	-0.705384	-0.198768	0.670217	-0.707448	-0.136944	0.683738	-0.692233	-0.148530	0.742309	-0.689446	-0.287380	0.314106	-0.725136	-0.307718	0.279127	-0.723975	-0.250250	0.253437	-0.721287	-0.236626	0.295502	-0.723397	-0.392213	0.115276	-0.682566	-0.258974	0.028849	-0.749439	-0.222891	0.031273	-0.678680	-0.200929	0.023066	-0.688412	
627	3.1350	-0.293429	1.363059	-0.544251	-0.253660	1.325062	-0.717637	-0.259056	1.352149	-0.367293	-0.174703	1.322812	-0.540489	-0.139643	0.936338	-0.434948	-0.140912	0.942641	-0.618094	-0.209018	0.976915	-0.390367	-0.210722	0.982887	-0.657036	-0.288677	0.963206	-0.461852	-0.290414	0.966114	-0.573771	-0.293548	0.977325	-0.520622	-0.231296	0.767719	-0.354724	-0.211697	0.711586	-0.347214	-0.149669	0.727841	-0.356133	-0.161071	0.787721	-0.363639	-0.238777	0.337563	-0.315463	-0.261095	0.300355	-0.313656	-0.209723	0.275627	-0.335366	-0.192669	0.312349	-0.339235	-0.374111	0.108089	-0.358863	-0.234834	0.032759	-0.294258	-0.202639	0.031946	-0.369078	-0.177458	0.024448	-0.359679	-0.217747	0.733686	-0.706058	-0.198784	0.675043	-0.708145	-0.136954	0.688189	-0.692630	-0.148235	0.746811	-0.689787	-0.288370	0.317570	-0.725680	-0.308284	0.282361	-0.724450	-0.250513	0.257370	-0.722207	-0.237392	0.299559	-0.724328	-0.390341	0.118076	-0.682911	-0.258486	0.029189	-0.749304	-0.222650	0.031415	-0.678939	-0.200885	0.023096	-0.688516	
628	3.1400	-0.293919	1.368042	-0.544747	-0.253752	1.330449	-0.718015	-0.259918	1.357388	-0.367867	-0.175501	1.328116	-0.540860	-0.138708	0.941525	-0.435878	-0.140340	0.947998	-0.618753	-0.207666	0.982254	-0.390856	-0.210608	0.987924	-0.657315	-0.287480	0.968186	-0.461849	-0.289594	0.970979	-0.573644	-0.292733	0.982117	-0.520543	-0.230749	0.773263	-0.354896	-0.211697	0.716904	-0.347400	-0.149538	0.732533	-0.356608	-0.160357	0.792517	-0.364148	-0.240190	0.341476	-0.315394	-0.262091	0.304216	-0.313489	-0.210424	0.280054	-0.335141	-0.193778	0.316953	-0.339004	-0.372247	0.111111	-0.359004	-0.234294	0.033290	-0.294437	-0.202403	0.032021	-0.368846	-0.177523	0.024471	-0.359632	-0.217450	0.738918	-0.706752	-0.198866	0.680156	-0.708855	-0.137019	0.692857	-0.693053	-0.147924	0.751550	-0.690158	-0.289387	0.321198	-0.726303	-0.308827	0.285742	-0.725019	-0.250730	0.261542	-0.723231	-0.238170	0.303858	-0.725342	-0.388282	0.121048	-0.683373	-0.257934	0.029556	-0.749195	-0.222400	0.031572	-0.679233	-0.200856	0.023131	-0.688652	
629	3.1450	-0.294424	1.373291	-0.545196	-0.253896	1.336143	-0.718323	-0.260702	1.362979	-0.368455	-0.176264	1.333714	-0.541236	-0.137835	0.946965	-0.436824	-0.139738	0.953534	-0.619368	-0.206381	0.987900	-0.391400	-0.210268	0.993263	-0.657627	-0.286271	0.973503	-0.461978	-0.288714	0.976155	-0.573647	-0.291925	0.987207	-0.520603	-0.230144	0.779069	-0.354989	-0.211631	0.722487	-0.347487	-0.149362	0.737488	-0.357090	-0.159606	0.797560	-0.364703	-0.241662	0.345482	-0.315385	-0.263125	0.308309	-0.313314	-0.211122	0.284765	-0.334827	-0.194930	0.321816	-0.338691	-0.370144	0.114362	-0.359252	-0.233701	0.033874	-0.294646	-0.202113	0.032120	-0.368602	-0.177593	0.024501	-0.359560	-0.217196	0.744390	-0.707455	-0.199050	0.685498	-0.709577	-0.137169	0.697694	-0.693516	-0.147640	0.756460	-0.690577	-0.290405	0.324945	-0.726990	-0.309328	0.289230	-0.725667	-0.250894	0.265886	-0.724336	-0.238951	0.308344	-0.726420	-0.386032	0.124158	-0.683933	-0.257315	0.029957	-0.749107	-0.222133	0.031745	-0.679560	-0.200839	0.023171	-0.688819	
630	3.1500	-0.294934	1.378718	-0.545609	-0.254092	1.342078	-0.718564	-0.261398	1.368844	-0.369060	-0.176987	1.339529	-0.541616	-0.137032	0.952604	-0.437773	-0.139118	0.959180	-0.619928	-0.205185	0.993804	-0.392022	-0.209679	0.998871	-0.657934	-0.285057	0.979091	-0.462256	-0.287767	0.981585	-0.573779	-0.291110	0.992553	-0.520818	-0.229482	0.785055	-0.354982	-0.211497	0.728262	-0.347471	-0.149143	0.742642	-0.357578	-0.158826	0.802782	-0.365301	-0.243201	0.349730	-0.315350	-0.264201	0.312577	-0.313145	-0.211813	0.289693	-0.334426	-0.196134	0.326886	-0.338319	-0.367780	0.117808	-0.359588	-0.233063	0.034511	-0.294896	-0.201764	0.032255	-0.368356	-0.177662	0.024541	-0.359462	-0.217021	0.750035	-0.708153	-0.199368	0.691002	-0.710295	-0.137430	0.702649	-0.694039	-0.147417	0.761490	-0.691056	-0.291410	0.328764	-0.727722	-0.309780	0.292783	-0.726373	-0.251002	0.270353	-0.725509	-0.239721	0.312968	-0.727543	-0.383586	0.127378	-0.684585	-0.256620	0.030402	-0.749039	-0.221838	0.031942	-0.679910	-0.200825	0.023220	-0.689019	
631	3.1550	-0.295452	1.384253	-0.545986	-0.254324	1.348175	-0.718746	-0.262009	1.374882	-0.369686	-0.177666	1.345495	-0.541995	-0.136311	0.958370	-0.438707	-0.138486	0.964871	-0.620427	-0.204085	0.999906	-0.392740	-0.208844	1.004685	-0.658219	-0.283861	0.984886	-0.462682	-0.286760	0.987202	-0.574053	-0.290213	0.998116	-0.521193	-0.228766	0.791164	-0.354885	-0.211297	0.734201	-0.347364	-0.148880	0.747922	-0.358074	-0.158023	0.808130	-0.365939	-0.244817	0.354180	-0.315300	-0.265317	0.316954	-0.313016	-0.212497	0.294781	-0.333944	-0.197379	0.332093	-0.337901	-0.365139	0.121415	-0.360024	-0.232394	0.035188	-0.295187	-0.201344	0.032444	-0.368111	-0.177717	0.024593	-0.359340	-0.216958	0.755792	-0.708834	-0.199838	0.696610	-0.711006	-0.137824	0.707678	-0.694633	-0.147282	0.766601	-0.691594	-0.292399	0.332644	-0.728498	-0.310181	0.296362	-0.727135	-0.251053	0.274904	-0.726728	-0.240470	0.317678	-0.728699	-0.380959	0.130661	-0.685294	-0.255842	0.030902	-0.748987	-0.221500	0.032178	-0.680276	-0.200804	0.023278	-0.689251	
632	3.1600	-0.295974	1.389838	-0.546328	-0.254578	1.354366	-0.718875	-0.262536	1.381013	-0.370336	-0.178309	1.351540	-0.542373	-0.135676	0.964200	-0.439616	-0.137849	0.970540	-0.620861	-0.203092	1.006150	-0.393547	-0.207784	1.010629	-0.658487	-0.282701	0.990817	-0.463258	-0.285712	0.992937	-0.574465	-0.289367	1.003822	-0.521728	-0.228003	0.797336	-0.354707	-0.211040	0.740223	-0.347203	-0.148589	0.753276	-0.358586	-0.157209	0.813540	-0.366610	-0.246491	0.358775	-0.315253	-0.266465	0.321374	-0.312948	-0.213164	0.299965	-0.333394	-0.198647	0.337378	-0.337452	-0.362244	0.125170	-0.360557	-0.231693	0.035922	-0.295521	-0.200839	0.032712	-0.367874	-0.177746	0.024661	-0.359195	-0.217020	0.761609	-0.709494	-0.200467	0.702281	-0.711712	-0.138363	0.712732	-0.695298	-0.147250	0.771741	-0.692197	-0.293367	0.336543	-0.729295	-0.310526	0.299951	-0.727924	-0.251049	0.279502	-0.727977	-0.241200	0.322439	-0.729871	-0.378164	0.134017	-0.686068	-0.254970	0.031464	-0.748954	-0.221086	0.032486	-0.680656	-0.200755	0.023358	-0.689516	
633	3.1650	-0.296502	1.395411	-0.546651	-0.254842	1.360586	-0.718963	-0.262985	1.387159	-0.371017	-0.178917	1.357594	-0.542745	-0.135127	0.970029	-0.440493	-0.137209	0.976129	-0.621230	-0.202210	1.012472	-0.394433	-0.206543	1.016622	-0.658754	-0.281585	0.996830	-0.463975	-0.284645	0.998728	-0.574998	-0.288582	1.009606	-0.522408	-0.227211	0.803514	-0.354475	-0.210749	0.746259	-0.347014	-0.148302	0.758640	-0.359101	-0.156397	0.818955	-0.367304	-0.248212	0.363431	-0.315213	-0.267620	0.325793	-0.312955	-0.213795	0.305185	-0.332799	-0.199913	0.342721	-0.336991	-0.359127	0.129050	-0.361154	-0.230972	0.036729	-0.295890	-0.200230	0.033093	-0.367652	-0.177729	0.024749	-0.359036	-0.217212	0.767445	-0.710129	-0.201248	0.707967	-0.712416	-0.139036	0.717787	-0.696035	-0.147331	0.776862	-0.692858	-0.294303	0.340436	-0.730101	-0.310814	0.303526	-0.728735	-0.251001	0.284106	-0.729246	-0.241899	0.327205	-0.731047	-0.375217	0.137445	-0.686906	-0.254001	0.032113	-0.748943	-0.220576	0.032889	-0.681048	-0.200656	0.023462	-0.689809	
634	3.1700	-0.297029	1.400898	-0.546961	-0.255107	1.366773	-0.719018	-0.263367	1.393250	-0.371727	-0.179529	1.363585	-0.543110	-0.134664	0.975794	-0.441329	-0.136575	0.981602	-0.621546	-0.201430	1.018811	-0.395383	-0.205181	1.022578	-0.659037	-0.280529	1.002862	-0.464807	-0.283568	1.004506	-0.575646	-0.287816	1.015429	-0.523231	-0.226414	0.809645	-0.354220	-0.210445	0.752258	-0.346815	-0.148021	0.763974	-0.359616	-0.155606	0.824331	-0.368006	-0.249946	0.368241	-0.315126	-0.268755	0.330169	-0.313048	-0.214378	0.310394	-0.332178	-0.201144	0.348066	-0.336538	-0.355839	0.133048	-0.361803	-0.230226	0.037641	-0.296288	-0.199504	0.033623	-0.367437	-0.177654	0.024846	-0.358871	-0.217522	0.773258	-0.710734	-0.202168	0.713624	-0.713113	-0.139836	0.722797	-0.696831	-0.147523	0.781944	-0.693556	-0.295200	0.344306	-0.730911	-0.311043	0.307069	-0.729553	-0.250912	0.288699	-0.730521	-0.242563	0.331942	-0.732219	-0.372151	0.140947	-0.687817	-0.252932	0.032859	-0.748958	-0.219950	0.033409	-0.681446	-0.200480	0.023595	-0.690126	
